<svg width="96" height="96" viewBox="0 0 96 96" fill="none" xmlns="http://www.w3.org/2000/svg">
<rect width="13.4363" height="47.509" transform="matrix(0.865679 0.500599 -2.19953e-08 1 48.027 1)" fill="#2DA078"/>
<rect width="13.4363" height="47.4448" transform="matrix(0.865679 0.500599 -0.865679 0.500599 48.0723 48.5017)" fill="#2DBA89"/>
<rect width="13.4363" height="45.5434" transform="matrix(0.866025 0.5 -2.20305e-08 1 7 26.7257)" fill="#39CE9A"/>
<rect width="13.4363" height="45.4039" transform="matrix(0.865679 0.500599 -0.865679 0.500599 48.0723 1.03311)" fill="#39CE9A"/>
<rect width="13.4363" height="47.509" transform="matrix(0.865679 0.500599 -2.19953e-08 1 62.9909 9.54521)" fill="#2DA078"/>
<rect width="13.4363" height="47.4448" transform="matrix(0.865679 0.500599 -0.865679 0.500599 63.0359 57.0469)" fill="#2DBA89"/>
<rect width="13.4363" height="47.5017" transform="matrix(0.865679 0.500599 -2.19953e-08 1 21.9639 33.3128)" fill="#39CE9A"/>
<rect width="13.4363" height="47.4448" transform="matrix(0.865679 0.500599 -0.865679 0.500599 63.0359 9.57863)" fill="#39CE9A"/>
<rect width="13.4363" height="71.0646" transform="matrix(0.865679 0.500599 -2.19953e-08 1 77.8557 18.0911)" fill="#2DA078"/>
<rect width="13.4363" height="47.4448" transform="matrix(0.865679 0.500599 -0.865679 0.500599 77.9012 65.0023)" fill="#2DBA89"/>
<rect width="13.4363" height="47.5017" transform="matrix(0.865679 0.500599 -2.19953e-08 1 36.8288 41.2681)" fill="#39CE9A"/>
<rect width="13.4363" height="47.4448" transform="matrix(0.865679 0.500599 -0.865679 0.500599 77.9012 18.1245)" fill="#39CE9A"/>
</svg>
